Coordinates
version=1
nRows=5
nColumns=42
inDegrees=yes

Units are S.I. units (second, meters, Newtons, ...)
If the header above contains a line with 'inDegrees', this indicates whether rotational values are in degrees (yes) or radians (no).

endheader
time	pelvis_tilt	pelvis_list	pelvis_rotation	pelvis_tx	pelvis_ty	pelvis_tz	hip_flexion_r	hip_adduction_r	hip_rotation_r	knee_angle_r	knee_adduction_r	knee_angle_r_beta	ankle_angle_r	subtalar_angle_r	mtp_angle_r	hip_flexion_l	hip_adduction_l	hip_rotation_l	knee_angle_l	knee_adduction_l	knee_angle_l_beta	ankle_angle_l	subtalar_angle_l	mtp_angle_l	lumbar_extension	lumbar_bending	lumbar_rotation	arm_flex_r	arm_add_r	arm_rot_r	elbow_flex_r	pro_sup_r	wrist_flex_r	wrist_dev_r	arm_flex_l	arm_add_l	arm_rot_l	elbow_flex_l	pro_sup_l	wrist_flex_l	wrist_dev_l
      2.19000000	     -0.26778327	      1.92799400	     -3.48370027	      0.08109718	      0.98033373	      0.29206951	      4.79708233	     -9.08160574	      2.00124522	     52.68323880	      5.47607498	      0.91949598	      3.02873058	      5.47632529	     -7.50790097	      7.11057808	      2.67335267	    -13.75591859	      5.66976847	     -0.72476790	      0.09895613	      3.05528459	     20.11419752	     -7.50790097	     -9.21567706	     -4.34762079	     -0.73292648	     -1.03543151	    -13.94418005	     12.02768043	     32.26029837	     90.00000001	      0.00000000	      0.00000000	     -2.39577183	    -15.37786656	     15.88855449	     28.38340468	     90.00000001	      0.00000000	      0.00000000
      2.20000000	     -0.10249041	      1.73429398	     -3.19527613	      0.09056794	      0.98118949	      0.29041610	      6.11231687	     -8.91351704	      1.67291058	     53.90542731	      5.35323040	      0.94082719	      4.03320688	      5.85746804	     -7.50773331	      6.17376489	      2.62057106	    -13.52145879	      5.42271556	     -0.63836701	      0.09464424	      3.60543276	     20.47564694	     -7.50773331	     -9.39867183	     -3.98796892	     -1.17835894	     -1.45467611	    -13.86262858	     11.97025902	     32.06814440	     90.00000001	      0.00000000	      0.00000000	     -1.52408386	    -15.50136076	     16.44147589	     28.47736018	     90.00000001	      0.00000000	      0.00000000
      2.21000000	      0.04720964	      1.69294440	     -2.81109662	      0.09987910	      0.98191626	      0.28864861	      7.46233061	     -8.96738688	      0.86269462	     54.93306446	      4.97751044	      0.95876284	      5.09875252	      7.41429666	     -7.50728182	      5.34402918	      2.76832563	    -13.18169962	      5.28933935	     -0.63694292	      0.09231639	      4.00408095	     20.69110270	     -7.50728182	     -9.57536513	     -3.78329046	     -1.62766976	     -1.95049240	    -13.69445684	     11.59200288	     31.91845397	     90.00000001	      0.00000000	      0.00000000	     -0.61540410	    -15.89153589	     18.10289172	     28.83009800	     90.00000001	      0.00000000	      0.00000000
      2.22000000	      0.19391780	      1.44501600	     -2.48822173	      0.10925120	      0.98271944	      0.28701724	      8.69333849	     -8.73733166	      0.68394579	     55.54143695	      5.13779120	      0.96938095	      5.85368002	      7.59840995	     -7.50716008	      4.49539446	      2.65743191	    -12.84935186	      5.16178270	     -0.60988983	      0.09009010	      4.51229029	     20.96646019	     -7.50716008	     -9.73387033	     -3.34612917	     -2.02192578	     -2.41528234	    -13.60932149	     11.53621135	     31.73203319	     90.00000001	      0.00000000	      0.00000000	      0.32048003	    -15.92616731	     18.42876418	     28.88394431	     90.00000001	      0.00000000	      0.00000000
      2.23000000	      0.38086742	      1.23036509	     -2.15247469	      0.11840575	      0.98349878	      0.28523636	      9.88247527	     -8.58404286	      0.49535629	     55.93693762	      5.38928312	      0.97628373	      6.31715772	      7.76185721	     -7.50708647	      3.72349154	      2.58511520	    -12.72369032	      5.21513487	     -0.60720458	      0.09102127	      4.82834283	     21.06012018	     -7.50708647	     -9.96854117	     -2.92162562	     -2.42823805	     -2.86902045	    -13.56848967	     11.48549015	     31.57554988	     90.00000001	      0.00000000	      0.00000000	      1.22663006	    -15.95077888	     18.61330686	     29.09482251	     90.00000001	      0.00000000	      0.00000000
